<svg xmlns="http://www.w3.org/2000/svg" width="120" height="60"><path d="M58.505 27.333c0 1.64-.675 2.96-2.034 3.964S53.215 32.8 50.78 32.8h-1.35l-1.037 4.478H44.83l3.176-13.756h4.944c.9 0 1.68.064 2.348.185s1.246.338 1.73.635a3.08 3.08 0 0 1 1.101 1.174c.25.498.378 1.1.378 1.817zm-3.787.346c0-.54-.193-.933-.587-1.2s-.965-.386-1.73-.386h-1.43l-.95 4.116h1.28c1.077 0 1.92-.217 2.516-.66.603-.442.9-1.07.9-1.88zm10.34 8.506l-.756.5c-.297.193-.57.346-.82.458a6.17 6.17 0 0 1-.973.322c-.306.072-.724.113-1.254.113-.86 0-1.568-.24-2.114-.724s-.82-1.118-.82-1.9c0-.82.193-1.5.58-2.082s.965-1.03 1.73-1.367c.716-.322 1.568-.555 2.55-.7l3.208-.314.04-.177c.024-.08.032-.177.032-.28a.93.93 0 0 0-.6-.917c-.4-.177-1.013-.265-1.817-.265-.547 0-1.15.088-1.817.273l-1.487.458h-.306l.5-2.46c.386-.096 1-.2 1.8-.33s1.624-.185 2.428-.185c1.624 0 2.822.2 3.578.635.764.426 1.142 1.085 1.142 1.978a4.1 4.1 0 0 1-.032.482 3.62 3.62 0 0 1-.088.515l-1.624 7.06h-3.304zm.884-3.795l-1.672.177a6.27 6.27 0 0 0-1.327.297c-.378.137-.667.33-.86.57-.2.25-.297.57-.297.98 0 .354.13.6.394.756s.643.217 1.15.217c.33 0 .675-.072 1.053-.225a5.11 5.11 0 0 0 1.053-.58zm9.038 8.7h-3.66l2.645-4.012-1.704-10.162h3.4l.9 6.794 3.947-6.794h3.513z" fill="#123984"/><path d="M97.32 27.333c0 1.64-.675 2.96-2.034 3.964S92.03 32.8 89.595 32.8h-1.35l-1.037 4.478h-3.562l3.168-13.748h4.944c.9 0 1.68.064 2.348.185s1.246.338 1.73.635a3.08 3.08 0 0 1 1.101 1.174c.257.5.386 1.093.386 1.8zm-3.795.346c0-.54-.193-.933-.587-1.2s-.965-.386-1.73-.386h-1.43l-.95 4.116h1.278c1.077 0 1.92-.217 2.516-.66.603-.442.9-1.07.9-1.88zm10.348 8.506l-.756.5c-.297.193-.57.346-.82.458a6.17 6.17 0 0 1-.973.322c-.306.072-.724.113-1.254.113-.86 0-1.568-.24-2.114-.724s-.82-1.118-.82-1.9c0-.82.193-1.5.58-2.082s.965-1.03 1.73-1.367c.716-.322 1.568-.555 2.55-.7l3.208-.314.04-.177c.024-.08.032-.177.032-.28a.93.93 0 0 0-.6-.917c-.4-.177-1.013-.265-1.817-.265-.547 0-1.15.088-1.817.273l-1.487.458h-.306l.5-2.46c.386-.096 1-.2 1.8-.33s1.624-.185 2.428-.185c1.624 0 2.822.2 3.578.635.764.426 1.142 1.085 1.142 1.978a4.1 4.1 0 0 1-.032.482 3.62 3.62 0 0 1-.088.515l-1.624 7.06h-3.312zm.884-3.795l-1.672.177a6.27 6.27 0 0 0-1.327.297c-.378.137-.667.33-.86.57-.2.25-.297.57-.297.98 0 .354.13.6.394.756s.643.217 1.15.217c.33 0 .675-.072 1.053-.225a5.11 5.11 0 0 0 1.053-.58zm11.875-9.48l-3.32 14.375h-3.345l3.32-14.375z" fill="#009de2"/><g transform="matrix(.071673 0 0 .071673 -13.776444 3.122618)"><path d="M754.6 298.1c0 54.6-22.7 98.7-68 132.2s-108.6 50.2-190 50.2h-45L417.1 630H298.2L408 171.2h161c30 0 56.1 2.1 78.5 6.2 22.3 4.1 41.6 11.2 57.8 21.3 16 10.1 28.3 23.2 36.7 39.3 8.4 16 12.6 36.1 12.6 60.1z" fill="#009cde"/><path d="M421.1 634.9H292l112.2-468.7H569c30.1 0 56.8 2.1 79.3 6.2 22.8 4.2 42.8 11.6 59.5 21.9 16.7 10.5 29.7 24.4 38.5 41.2s13.2 37.8 13.2 62.5c0 56-23.5 101.9-70 136.2-46 34-110.9 51.2-193 51.2h-41.1zm-116.6-9.8h108.7l34.5-149.5h48.9c79.9 0 142.9-16.6 187.1-49.3 21.9-16.2 38.6-35.2 49.5-56.4s16.4-45.4 16.4-71.8c0-23.1-4.1-42.6-12.1-58-8-15.3-19.7-27.8-34.9-37.4-15.6-9.7-34.5-16.6-56.1-20.6-21.9-4-48-6.1-77.6-6.1h-157z" fill="#fff"/><path d="M701.8 247c0 54.6-22.7 98.7-68 132.2s-108.6 50.2-190 50.2h-45l-34.5 149.5H245.4L351.3 120h164.9c30 0 56.1 2.1 78.5 6.2 22.3 4.1 41.6 11.2 57.8 21.3 16 10.1 28.3 23.2 36.7 39.3 8.4 16 12.6 36.1 12.6 60.2z" fill="#0f3572"/><path d="M368.2 583.8h-129l108.1-468.7h168.9c30.1 0 56.8 2.1 79.3 6.2 22.8 4.2 42.8 11.6 59.5 21.9 16.7 10.5 29.7 24.4 38.5 41.2s13.2 37.8 13.2 62.5c0 56-23.5 101.9-70 136.2-46 34-110.9 51.2-193 51.2h-41.1zm-116.6-9.9h108.8l34.5-149.5h48.9c79.9 0 142.9-16.6 187.1-49.3 21.9-16.2 38.6-35.2 49.5-56.4s16.4-45.4 16.4-71.8c0-23.1-4.1-42.6-12.1-58-8-15.3-19.7-27.8-34.9-37.4-15.6-9.7-34.5-16.6-56.1-20.6-21.9-4-48-6.1-77.6-6.1h-161zm328-310.6c-.9 14-3.7 24.3-12.3 36.2-8.5 11.9-18.5 19.6-31.9 26-8.1 3.8-16.5 6.3-25.3 7.5s-19.3 1.9-31.6 1.9h-59.1l33.1-118.6h53.7c13.7 0 24.7.2 33 2.1 8.3 1.8 15.1 4.3 20.2 7.4 7.1 4.2 12.8 9.3 16.1 15.8 4.1 7.6 4.6 12.5 4.1 21.7z" fill="#fff"/></g></svg>